<svg width="730" height="491" viewBox="0 0 730 491" fill="none" xmlns="http://www.w3.org/2000/svg">
<circle cx="365" cy="235" r="235" fill="black"/>
<circle cx="365" cy="235" r="225" fill="#D9D9D9"/>
<circle cx="365" cy="235" r="215" fill="black"/>
<g filter="url(#filter0_i_3_7)">
<path d="M564.289 255.785L575 265.157V234.364L566.967 196.207L552.909 166.083L538.851 148.008L521.446 174.116L538.851 180.14L552.909 192.859L560.942 210.264L565.628 229.008L564.289 255.785Z" fill="white"/>
<path d="M518.099 152.694L500.694 174.116L486.636 176.124L473.917 182.818L457.851 163.405L448.479 149.347L439.777 128.595V105.835L448.479 83.0744L463.207 69.0165L477.934 65H488.645L507.388 72.3636L521.446 89.0992L526.802 105.835V124.578L518.099 152.694Z" fill="white"/>
<path d="M425.05 224.322L413 257.124L425.05 251.099L443.124 249.76V245.074L435.76 239.719L431.074 231.016V224.322L447.14 214.95L462.537 192.859L448.479 180.14L435.76 163.405L428.397 177.463V203.57L425.05 224.322Z" fill="white"/>
</g>
<path d="M564.289 255.785L575 265.157V234.364L566.967 196.207L552.909 166.083L538.851 148.008L521.446 174.116L538.851 180.14L552.909 192.859L560.942 210.264L565.628 229.008L564.289 255.785Z" stroke="black" stroke-width="4"/>
<path d="M518.099 152.694L500.694 174.116L486.636 176.124L473.917 182.818L457.851 163.405L448.479 149.347L439.777 128.595V105.835L448.479 83.0744L463.207 69.0165L477.934 65H488.645L507.388 72.3636L521.446 89.0992L526.802 105.835V124.578L518.099 152.694Z" stroke="black" stroke-width="4"/>
<path d="M425.05 224.322L413 257.124L425.05 251.099L443.124 249.76V245.074L435.76 239.719L431.074 231.016V224.322L447.14 214.95L462.537 192.859L448.479 180.14L435.76 163.405L428.397 177.463V203.57L425.05 224.322Z" stroke="black" stroke-width="4"/>
<g filter="url(#filter1_i_3_7)">
<path d="M165.711 249.785L155 259.157V228.364L163.033 190.207L177.091 160.083L191.149 142.008L208.554 168.116L191.149 174.14L177.091 186.859L169.058 204.264L164.372 223.008L165.711 249.785Z" fill="white"/>
<path d="M211.901 146.694L229.306 168.116L243.364 170.124L256.083 176.818L272.149 157.405L281.521 143.347L290.223 122.595V99.8347L281.521 77.0744L266.793 63.0165L252.066 59H241.355L222.612 66.3636L208.554 83.0992L203.198 99.8347V118.578L211.901 146.694Z" fill="white"/>
<path d="M304.95 218.322L317 251.124L304.95 245.099L286.876 243.76V239.074L294.24 233.719L298.926 225.016V218.322L282.86 208.95L267.463 186.859L281.521 174.14L294.24 157.405L301.603 171.463V197.57L304.95 218.322Z" fill="white"/>
</g>
<path d="M165.711 249.785L155 259.157V228.364L163.033 190.207L177.091 160.083L191.149 142.008L208.554 168.116L191.149 174.14L177.091 186.859L169.058 204.264L164.372 223.008L165.711 249.785Z" stroke="black" stroke-width="4"/>
<path d="M211.901 146.694L229.306 168.116L243.364 170.124L256.083 176.818L272.149 157.405L281.521 143.347L290.223 122.595V99.8347L281.521 77.0744L266.793 63.0165L252.066 59H241.355L222.612 66.3636L208.554 83.0992L203.198 99.8347V118.578L211.901 146.694Z" stroke="black" stroke-width="4"/>
<path d="M304.95 218.322L317 251.124L304.95 245.099L286.876 243.76V239.074L294.24 233.719L298.926 225.016V218.322L282.86 208.95L267.463 186.859L281.521 174.14L294.24 157.405L301.603 171.463V197.57L304.95 218.322Z" stroke="black" stroke-width="4"/>
<g filter="url(#filter2_i_3_7)">
<path d="M323.041 215.814L315.682 239.025L304.926 212.417V174.488L298.698 158.07L297 133.727L315.682 129.198L328.136 147.88L351.913 162.599H370.595L390.975 156.372L409.657 143.351L416.45 129.198L434 133.727V152.975L430.603 162.599L424.376 181.281L428.339 188.641L426.074 212.417L416.45 239.025L411.921 225.438L403.996 209.587L390.975 192.603H338.893L335.496 197.132L323.041 215.814Z" fill="#555E67"/>
<path d="M376.822 151.277H358.14L339.459 139.955L329.835 129.198L324.74 118.442L322.475 109.384V91.8347L323.607 86.1736L330.967 72.5868L340.591 64.6612L358.14 59H376.256L397.202 67.4917L406.26 81.6446L410.789 94.6653V108.252L404.562 128.066L393.806 141.087L376.822 151.277Z" fill="#555E67"/>
</g>
<path d="M323.041 215.814L315.682 239.025L304.926 212.417V174.488L298.698 158.07L297 133.727L315.682 129.198L328.136 147.88L351.913 162.599H370.595L390.975 156.372L409.657 143.351L416.45 129.198L434 133.727V152.975L430.603 162.599L424.376 181.281L428.339 188.641L426.074 212.417L416.45 239.025L411.921 225.438L403.996 209.587L390.975 192.603H338.893L335.496 197.132L323.041 215.814Z" stroke="black" stroke-width="4"/>
<path d="M376.822 151.277H358.14L339.459 139.955L329.835 129.198L324.74 118.442L322.475 109.384V91.8347L323.607 86.1736L330.967 72.5868L340.591 64.6612L358.14 59H376.256L397.202 67.4917L406.26 81.6446L410.789 94.6653V108.252L404.562 128.066L393.806 141.087L376.822 151.277Z" stroke="black" stroke-width="4"/>
<g filter="url(#filter3_i_3_7)">
<path d="M557.526 347.293L540.806 357.324L542.478 335.589L544.15 317.198V297.692L540.806 280.972L527.431 304.379L521.858 325V341.719L527.431 361.783H515.727V369.028L503.466 371.257L448.85 355.652L455.538 340.047V322.213L448.85 289.889V275.399L443.277 267.04L437.704 257.008L426 255.336L435.474 249.206L453.308 244.747L459.996 262.024L472.814 275.399L488.976 283.202H508.482L525.202 275.399L540.806 262.024L557.526 280.972L567 308.281V322.213L565.885 332.802L557.526 347.293Z" fill="#8989ED"/>
<path d="M492.877 269.826H502.909L516.842 262.024L527.988 251.435L537.462 233.043V217.439L533.004 200.719L526.874 191.802L488.976 184L477.83 191.802L470.585 200.719L465.012 215.767V231.372L471.7 252.549L479.502 263.138L492.877 269.826Z" fill="#8989ED"/>
</g>
<path d="M557.526 347.293L540.806 357.324L542.478 335.589L544.15 317.198V297.692L540.806 280.972L527.431 304.379L521.858 325V341.719L527.431 361.783H515.727V369.028L503.466 371.257L448.85 355.652L455.538 340.047V322.213L448.85 289.889V275.399L443.277 267.04L437.704 257.008L426 255.336L435.474 249.206L453.308 244.747L459.996 262.024L472.814 275.399L488.976 283.202H508.482L525.202 275.399L540.806 262.024L557.526 280.972L567 308.281V322.213L565.885 332.802L557.526 347.293Z" stroke="black" stroke-width="4"/>
<path d="M492.877 269.826H502.909L516.842 262.024L527.988 251.435L537.462 233.043V217.439L533.004 200.719L526.874 191.802L488.976 184L477.83 191.802L470.585 200.719L465.012 215.767V231.372L471.7 252.549L479.502 263.138L492.877 269.826Z" stroke="black" stroke-width="4"/>
<g filter="url(#filter4_i_3_7)">
<path d="M175.474 347.293L192.194 357.324L190.522 335.589L188.85 317.198V297.692L192.194 280.972L205.569 304.379L211.142 325V341.719L205.569 361.783H217.273V369.028L229.534 371.257L284.15 355.652L277.462 340.047V322.213L284.15 289.889V275.399L289.723 267.04L295.296 257.008L307 255.336L297.526 249.206L279.692 244.747L273.004 262.024L260.186 275.399L244.024 283.202H224.518L207.798 275.399L192.194 262.024L175.474 280.972L166 308.281V322.213L167.115 332.802L175.474 347.293Z" fill="#8989ED"/>
<path d="M240.123 269.826H230.091L216.158 262.024L205.012 251.435L195.538 233.043V217.439L199.996 200.719L206.126 191.802L244.024 184L255.17 191.802L262.415 200.719L267.988 215.767V231.372L261.3 252.549L253.498 263.138L240.123 269.826Z" fill="#8989ED"/>
</g>
<path d="M175.474 347.293L192.194 357.324L190.522 335.589L188.85 317.198V297.692L192.194 280.972L205.569 304.379L211.142 325V341.719L205.569 361.783H217.273V369.028L229.534 371.257L284.15 355.652L277.462 340.047V322.213L284.15 289.889V275.399L289.723 267.04L295.296 257.008L307 255.336L297.526 249.206L279.692 244.747L273.004 262.024L260.186 275.399L244.024 283.202H224.518L207.798 275.399L192.194 262.024L175.474 280.972L166 308.281V322.213L167.115 332.802L175.474 347.293Z" stroke="black" stroke-width="4"/>
<path d="M240.123 269.826H230.091L216.158 262.024L205.012 251.435L195.538 233.043V217.439L199.996 200.719L206.126 191.802L244.024 184L255.17 191.802L262.415 200.719L267.988 215.767V231.372L261.3 252.549L253.498 263.138L240.123 269.826Z" stroke="black" stroke-width="4"/>
<g filter="url(#filter5_i_3_7)">
<path d="M330.241 387.11L312.715 380.684L319.141 368.416L323.814 352.058L324.983 335.701L323.814 318.759L319.141 302.986L312.715 290.134L305.12 279.619V335.701L302.784 356.148L299.278 375.426L285.258 357.316L280 343.296V321.096L283.505 305.907L290.515 291.302L301.031 277.282L317.973 262.093L329.072 281.955L341.924 293.639L360.034 302.986H371.718L388.076 293.639L403.265 278.45L413.196 260.924L427.216 271.44L445.911 304.739L450 318.759V343.296L441.821 362.574L430.722 375.426L423.711 337.454V280.787L409.691 304.739L405.017 321.096V340.375L408.522 357.316L418.454 380.684L403.265 385.942L385.155 387.11L347.182 388.278L330.241 387.11Z" fill="#FEFEFE"/>
<path d="M369.381 286.045H360.034L344.845 276.113L336.082 265.014L329.072 251.577V237.557L331.409 222.368L336.082 208.931L341.924 199H388.66L396.254 213.605L400.344 223.536V250.409L393.333 267.351L384.57 277.282L369.381 286.045Z" fill="#FEFEFE"/>
</g>
<path d="M330.241 387.11L312.715 380.684L319.141 368.416L323.814 352.058L324.983 335.701L323.814 318.759L319.141 302.986L312.715 290.134L305.12 279.619V335.701L302.784 356.148L299.278 375.426L285.258 357.316L280 343.296V321.096L283.505 305.907L290.515 291.302L301.031 277.282L317.973 262.093L329.072 281.955L341.924 293.639L360.034 302.986H371.718L388.076 293.639L403.265 278.45L413.196 260.924L427.216 271.44L445.911 304.739L450 318.759V343.296L441.821 362.574L430.722 375.426L423.711 337.454V280.787L409.691 304.739L405.017 321.096V340.375L408.522 357.316L418.454 380.684L403.265 385.942L385.155 387.11L347.182 388.278L330.241 387.11Z" stroke="black" stroke-width="4"/>
<path d="M369.381 286.045H360.034L344.845 276.113L336.082 265.014L329.072 251.577V237.557L331.409 222.368L336.082 208.931L341.924 199H388.66L396.254 213.605L400.344 223.536V250.409L393.333 267.351L384.57 277.282L369.381 286.045Z" stroke="black" stroke-width="4"/>
<path d="M389.171 392.848C412.21 386.183 425.388 389.566 429.097 392.09C429.097 398.149 427.788 405.218 427.133 407.995C419.715 407.742 403.204 405.783 402.261 407.237C400.298 410.267 401.607 411.782 402.916 413.296C404.225 414.811 421.897 424.657 423.861 423.899C425.824 423.142 434.988 430.715 433.024 448.891C431.453 463.433 418.406 468.078 412.079 468.583C410.77 468.583 381.317 467.825 381.317 464.796C381.317 459.343 383.062 451.921 383.935 448.891C392.443 450.406 409.985 452.83 412.079 450.406C414.174 447.983 412.952 444.852 412.079 443.59C407.498 438.289 392.443 435.259 389.171 430.715C375.557 419.204 383.498 400.674 389.171 392.848Z" fill="white"/>
<path d="M539.712 390.574H519.422L518.767 439.044C518.767 457.978 526.622 468.581 550.839 469.338C576.366 468.581 582.256 455.706 582.256 437.53V390.574H561.311L561.966 439.044C561.966 448.89 559.61 453.434 550.184 453.434C540.759 453.434 539.276 443.841 539.712 439.044V390.574Z" fill="white"/>
<path d="M10.8543 392.846C33.8937 386.181 47.0715 389.564 50.7805 392.089C50.7805 398.148 49.4714 405.216 48.8169 407.993C41.3989 407.741 24.8874 405.782 23.9449 407.236C21.9813 410.265 23.2903 411.78 24.5994 413.295C25.9084 414.809 43.5807 424.655 45.5442 423.897C47.5078 423.14 56.6712 430.714 54.7076 448.89C53.1368 463.431 40.0899 468.076 33.7628 468.581C32.4537 468.581 3 467.824 3 464.794C3 459.341 4.7454 451.919 5.61811 448.89C14.127 450.405 31.6683 452.828 33.7628 450.405C35.8573 447.981 34.6355 444.851 33.7628 443.588C29.1811 438.287 14.127 435.258 10.8543 430.714C-2.75983 419.202 5.18177 400.672 10.8543 392.846Z" fill="white"/>
<path d="M116.233 391.331L114.924 406.478C87.434 407.993 88.0885 398.905 85.4704 429.199C83.3759 453.434 105.106 451.919 116.233 448.133L117.542 464.794C86.1249 475.397 61.9074 465.552 62.5619 426.927C63.2165 388.302 88.743 389.817 98.5609 388.302C106.415 387.09 113.615 389.817 116.233 391.331Z" fill="white"/>
<path d="M184.304 411.78C186.922 386.939 146.123 386.787 125.397 389.817V467.066H146.341V438.287H156.159C157.207 437.075 158.341 439.297 158.777 440.559L164.014 467.066H186.268C182.602 437.984 173.832 431.723 169.904 432.228V430.714C180.377 429.502 183.868 417.586 184.304 411.78Z" fill="white"/>
<path d="M213.758 389.817H193.467L192.813 438.287C192.813 457.221 200.667 467.824 224.885 468.581C250.411 467.824 256.302 454.949 256.302 436.772V389.817H235.357L236.012 438.287C236.012 448.133 233.655 452.677 224.23 452.677C214.805 452.677 213.321 443.084 213.758 438.287V389.817Z" fill="white"/>
<path d="M286.41 467.066H266.12L269.392 389.817H302.773L309.973 431.471L317.173 389.817H351.863L354.481 467.066H334.191L331.572 404.964L319.791 467.066H300.155L288.374 404.964L286.41 467.066Z" fill="white"/>
<path d="M513.531 469.338L503.059 486C487.35 470.096 484.732 467.824 484.732 467.824C484.732 467.824 463.132 470.853 451.351 461.007C443.754 454.659 439.569 441.316 440.878 423.899C442.188 406.482 448.078 397.39 457.896 392.09C467.714 386.791 476.877 389.059 482.768 389.059C488.659 389.059 502.404 394.361 506.986 409.508C511.567 424.655 507.64 439.802 506.986 445.86C506.462 450.708 502.404 456.463 500.44 458.735L513.531 469.338Z" fill="white"/>
<path d="M607.783 467.066H586.183L607.783 389.059H635.273L656.218 467.066H634.618L630.691 450.405H611.055L607.783 467.066Z" fill="white"/>
<path d="M685.017 389.059H662.109V467.066C670.399 467.571 689.468 466.763 699.417 465.552C711.853 464.037 719.707 458.735 724.289 448.133C727.954 439.65 727.125 423.392 726.252 416.324C723.634 396.633 710.544 392.846 710.544 392.846C710.544 392.846 704.653 388.302 685.017 389.059Z" fill="white"/>
<path d="M162.705 407.993C162.705 404.964 158.341 404.005 156.159 403.904H146.996V422.081C149.614 422.081 162.705 423.897 162.705 419.051M162.705 407.993C162.705 411.78 162.705 411.176 162.705 419.051M162.705 407.993V419.051M50.7805 392.089C47.0715 389.564 33.8937 386.181 10.8543 392.846C5.18177 400.672 -2.75983 419.202 10.8543 430.714C14.127 435.258 29.1811 438.287 33.7628 443.588C34.6355 444.851 35.8573 447.981 33.7628 450.405C31.6683 452.828 14.127 450.405 5.61811 448.89C4.7454 451.919 3 459.341 3 464.794C3 467.824 32.4537 468.581 33.7628 468.581C40.0899 468.076 53.1368 463.431 54.7076 448.89C56.6712 430.714 47.5078 423.14 45.5442 423.897C43.5807 424.655 25.9084 414.809 24.5994 413.295C23.2903 411.78 21.9813 410.265 23.9449 407.236C24.8874 405.782 41.3989 407.741 48.8169 407.993C49.4714 405.216 50.7805 398.148 50.7805 392.089ZM114.924 406.478L116.233 391.331C113.615 389.817 106.415 387.09 98.5609 388.302C88.743 389.817 63.2165 388.302 62.5619 426.927C61.9074 465.552 86.1249 475.397 117.542 464.794L116.233 448.133C105.106 451.919 83.3759 453.434 85.4704 429.199C88.0885 398.905 87.434 407.993 114.924 406.478ZM125.397 389.817C146.123 386.787 186.922 386.939 184.304 411.78C183.868 417.586 180.377 429.502 169.904 430.714V432.228C173.832 431.723 182.602 437.984 186.268 467.066H164.014L158.777 440.559C158.341 439.297 157.207 437.075 156.159 438.287H146.341V467.066H125.397V389.817ZM193.467 389.817H213.758V438.287C213.321 443.084 214.805 452.677 224.23 452.677C233.655 452.677 236.012 448.133 236.012 438.287L235.357 389.817H256.302V436.772C256.302 454.949 250.411 467.824 224.885 468.581C200.667 467.824 192.813 457.221 192.813 438.287L193.467 389.817ZM266.12 467.066H286.41L288.374 404.964L300.155 467.066H319.791L331.572 404.964L334.191 467.066H354.481L351.863 389.817H317.173L309.973 431.471L302.773 389.817H269.392L266.12 467.066ZM429.097 392.09C425.388 389.566 412.21 386.183 389.171 392.848C383.498 400.674 375.557 419.204 389.171 430.715C392.443 435.259 407.498 438.289 412.079 443.59C412.952 444.852 414.174 447.983 412.079 450.406C409.985 452.83 392.443 450.406 383.935 448.891C383.062 451.921 381.317 459.343 381.317 464.796C381.317 467.825 410.77 468.583 412.079 468.583C418.406 468.078 431.453 463.433 433.024 448.891C434.988 430.715 425.824 423.142 423.861 423.899C421.897 424.657 404.225 414.811 402.916 413.296C401.607 411.782 400.298 410.267 402.261 407.237C403.204 405.783 419.715 407.742 427.133 407.995C427.788 405.218 429.097 398.149 429.097 392.09ZM465.096 443.59C463.787 438.541 461.823 425.866 464.441 415.567C465.096 412.992 466.405 404.964 470.987 404.964C474.041 404.712 480.674 404.967 482.768 407.995C485.386 411.78 486.695 425.412 486.695 432.228C486.695 438.287 484.008 447.537 483.423 448.891C482.768 450.406 479.496 454.191 475.568 452.677C470.987 452.677 466.199 449.65 465.096 443.59ZM503.059 486L513.531 469.338L500.44 458.735C502.404 456.463 506.462 450.708 506.986 445.86C507.64 439.802 511.567 424.655 506.986 409.508C502.404 394.361 488.659 389.059 482.768 389.059C476.877 389.059 467.714 386.791 457.896 392.09C448.078 397.39 442.188 406.482 440.878 423.899C439.569 441.316 443.754 454.659 451.351 461.007C463.132 470.853 484.732 467.824 484.732 467.824C484.732 467.824 487.35 470.096 503.059 486ZM519.422 390.574H539.712V439.044C539.276 443.841 540.759 453.434 550.184 453.434C559.61 453.434 561.966 448.89 561.966 439.044L561.311 390.574H582.256V437.53C582.256 455.706 576.366 468.581 550.839 469.338C526.622 468.581 518.767 457.978 518.767 439.044L519.422 390.574ZM586.183 467.066H607.783L611.055 450.405H630.691L634.618 467.066H656.218L635.273 389.059H607.783L586.183 467.066ZM620.873 406.478H621.528L628.073 434.5H614.328L620.873 406.478ZM683.053 404.964C685.89 404.711 691.955 404.358 693.526 404.964C695.489 405.721 700.776 407.409 702.035 411.78C703.998 418.596 703.998 429.199 703.998 429.199C703.998 429.199 705.307 447.375 702.035 448.133C698.326 449.395 689.562 450.405 683.708 450.405C683.053 450.405 683.053 409.508 683.053 404.964ZM662.109 389.059H685.017C704.653 388.302 710.544 392.846 710.544 392.846C710.544 392.846 723.634 396.633 726.252 416.324C727.125 423.392 727.954 439.65 724.289 448.133C719.707 458.735 711.853 464.037 699.417 465.552C689.468 466.763 670.399 467.571 662.109 467.066V389.059Z" stroke="black" stroke-width="6"/>
<defs>
<filter id="filter0_i_3_7" x="409.384" y="63" width="171.616" height="210.564" filterUnits="userSpaceOnUse" color-interpolation-filters="sRGB">
<feFlood flood-opacity="0" result="BackgroundImageFix"/>
<feBlend mode="normal" in="SourceGraphic" in2="BackgroundImageFix" result="shape"/>
<feColorMatrix in="SourceAlpha" type="matrix" values="0 0 0 0 0 0 0 0 0 0 0 0 0 0 0 0 0 0 127 0" result="hardAlpha"/>
<feOffset dx="11" dy="4"/>
<feGaussianBlur stdDeviation="2"/>
<feComposite in2="hardAlpha" operator="arithmetic" k2="-1" k3="1"/>
<feColorMatrix type="matrix" values="0 0 0 0 0 0 0 0 0 0 0 0 0 0 0 0 0 0 0.25 0"/>
<feBlend mode="normal" in2="shape" result="effect1_innerShadow_3_7"/>
</filter>
<filter id="filter1_i_3_7" x="153" y="57" width="171.616" height="210.564" filterUnits="userSpaceOnUse" color-interpolation-filters="sRGB">
<feFlood flood-opacity="0" result="BackgroundImageFix"/>
<feBlend mode="normal" in="SourceGraphic" in2="BackgroundImageFix" result="shape"/>
<feColorMatrix in="SourceAlpha" type="matrix" values="0 0 0 0 0 0 0 0 0 0 0 0 0 0 0 0 0 0 127 0" result="hardAlpha"/>
<feOffset dx="13" dy="4"/>
<feGaussianBlur stdDeviation="2"/>
<feComposite in2="hardAlpha" operator="arithmetic" k2="-1" k3="1"/>
<feColorMatrix type="matrix" values="0 0 0 0 0 0 0 0 0 0 0 0 0 0 0 0 0 0 0.25 0"/>
<feBlend mode="normal" in2="shape" result="effect1_innerShadow_3_7"/>
</filter>
<filter id="filter2_i_3_7" x="294.887" y="57" width="145.113" height="192.118" filterUnits="userSpaceOnUse" color-interpolation-filters="sRGB">
<feFlood flood-opacity="0" result="BackgroundImageFix"/>
<feBlend mode="normal" in="SourceGraphic" in2="BackgroundImageFix" result="shape"/>
<feColorMatrix in="SourceAlpha" type="matrix" values="0 0 0 0 0 0 0 0 0 0 0 0 0 0 0 0 0 0 127 0" result="hardAlpha"/>
<feOffset dx="11" dy="4"/>
<feGaussianBlur stdDeviation="2"/>
<feComposite in2="hardAlpha" operator="arithmetic" k2="-1" k3="1"/>
<feColorMatrix type="matrix" values="0 0 0 0 0 0 0 0 0 0 0 0 0 0 0 0 0 0 0.25 0"/>
<feBlend mode="normal" in2="shape" result="effect1_innerShadow_3_7"/>
</filter>
<filter id="filter3_i_3_7" x="420.427" y="181.867" width="152.573" height="195.441" filterUnits="userSpaceOnUse" color-interpolation-filters="sRGB">
<feFlood flood-opacity="0" result="BackgroundImageFix"/>
<feBlend mode="normal" in="SourceGraphic" in2="BackgroundImageFix" result="shape"/>
<feColorMatrix in="SourceAlpha" type="matrix" values="0 0 0 0 0 0 0 0 0 0 0 0 0 0 0 0 0 0 127 0" result="hardAlpha"/>
<feOffset dx="13" dy="4"/>
<feGaussianBlur stdDeviation="2"/>
<feComposite in2="hardAlpha" operator="arithmetic" k2="-1" k3="1"/>
<feColorMatrix type="matrix" values="0 0 0 0 0 0 0 0 0 0 0 0 0 0 0 0 0 0 0.25 0"/>
<feBlend mode="normal" in2="shape" result="effect1_innerShadow_3_7"/>
</filter>
<filter id="filter4_i_3_7" x="164" y="181.867" width="152.573" height="195.441" filterUnits="userSpaceOnUse" color-interpolation-filters="sRGB">
<feFlood flood-opacity="0" result="BackgroundImageFix"/>
<feBlend mode="normal" in="SourceGraphic" in2="BackgroundImageFix" result="shape"/>
<feColorMatrix in="SourceAlpha" type="matrix" values="0 0 0 0 0 0 0 0 0 0 0 0 0 0 0 0 0 0 127 0" result="hardAlpha"/>
<feOffset dx="12" dy="4"/>
<feGaussianBlur stdDeviation="2"/>
<feComposite in2="hardAlpha" operator="arithmetic" k2="-1" k3="1"/>
<feColorMatrix type="matrix" values="0 0 0 0 0 0 0 0 0 0 0 0 0 0 0 0 0 0 0.25 0"/>
<feBlend mode="normal" in2="shape" result="effect1_innerShadow_3_7"/>
</filter>
<filter id="filter5_i_3_7" x="278" y="197" width="178" height="197.281" filterUnits="userSpaceOnUse" color-interpolation-filters="sRGB">
<feFlood flood-opacity="0" result="BackgroundImageFix"/>
<feBlend mode="normal" in="SourceGraphic" in2="BackgroundImageFix" result="shape"/>
<feColorMatrix in="SourceAlpha" type="matrix" values="0 0 0 0 0 0 0 0 0 0 0 0 0 0 0 0 0 0 127 0" result="hardAlpha"/>
<feOffset dx="11" dy="4"/>
<feGaussianBlur stdDeviation="2"/>
<feComposite in2="hardAlpha" operator="arithmetic" k2="-1" k3="1"/>
<feColorMatrix type="matrix" values="0 0 0 0 0 0 0 0 0 0 0 0 0 0 0 0 0 0 0.25 0"/>
<feBlend mode="normal" in2="shape" result="effect1_innerShadow_3_7"/>
</filter>
</defs>
</svg>
